<svg width="168" height="26" viewBox="0 0 168 26" fill="none" xmlns="http://www.w3.org/2000/svg">
<path d="M89 0.999999C88.2 1.4 87.5 4.16667 87.5 5.5L92 4.5C91.6667 3.16667 89.8 0.599999 89 0.999999Z" fill="#E86F3B"/>
<path d="M98.5 0.999999C97.3 0.999999 95.8333 3.33333 95.5 4.5L100 5.5C100.167 4 99.7 0.999999 98.5 0.999999Z" fill="#E86F3B"/>
<path d="M107 15.5L106 17H120.688L119.5 15.5L118.5 16.5L117 15.5L116 16.5L114.5 15.5L113 16.5L112 15.5L111 16.5L109.5 15.5L108 16.5L107 15.5Z" fill="#BBE5EF" stroke="#BBE5EF" stroke-width="1.5" stroke-linejoin="round"/>
<path d="M72.8544 22C68.5345 22 65.644 18.6191 65.9616 14.5366L66.6922 5L70.9168 5.38274L70.1227 15.2702C69.9639 17.2158 71.171 18.2364 72.5368 18.2364C73.9344 18.2364 75.4909 17.2477 76.1262 15.2702L79.9378 16.833C78.4767 19.7992 75.9673 22 72.8544 22Z" fill="#553B1F"/>
<path d="M61.9378 9.72291L55.4984 9.75489C55.6298 10.9698 55.7612 12.1847 55.827 13.3357C57.2068 13.3996 58.8167 13.5595 59.8023 13.7513L59.2766 17.2362C58.4553 17.0124 56.8783 16.8845 55.8927 16.8526C55.6627 19.794 54.0857 22 51.0631 22C47.6791 22 45.9378 19.8899 45.9378 17.7158C45.9378 15.5417 47.7448 13.3357 51.3916 13.3357C51.2931 10.746 50.8988 7.45293 50.3403 4.35169L54.6442 4C54.7756 4.73535 54.907 5.50266 55.0056 6.26998L61.8721 6.23801L61.9378 9.72291ZM50.9317 18.4831C51.3916 18.4831 51.7859 18.0995 51.7859 17.6519C51.7859 17.2043 51.3916 16.8206 50.9317 16.8206C50.4717 16.8206 50.0775 17.2043 50.0775 17.6519C50.0775 18.0995 50.4717 18.4831 50.9317 18.4831Z" fill="#553B1F"/>
<path d="M34.7598 4.65336L34.4771 6.80944C39.6603 7.26679 40.6342 9.52087 40.6342 12.1016C40.6342 12.657 40.6028 13.2123 40.5399 13.8004C40.32 16.0544 39.9431 18.8312 39.2206 22L34.4771 21.804L34.6342 17.9819L36.4876 18.0799L36.9902 14.5844C37.0216 14.225 37.053 13.8657 37.053 13.539C37.053 11.9383 36.4876 10.9583 33.9117 10.7296L32.3724 22L28.7598 21.51L30.0478 10.7623C29.231 10.8276 28.32 10.8929 27.3148 11.0236L26.9378 7.13612C28.2572 6.97278 29.4195 6.87477 30.4876 6.80944L30.8331 4L34.7598 4.65336ZM40.8855 5.69873L44.5609 5.40472L44.9378 12.7877L41.3881 13.0817L40.8855 5.69873Z" fill="#553B1F"/>
<path d="M17.9165 6.19048L17.8524 9.80952L12.2475 9.84127L10.6781 19.5556L6.96275 19.1111L8.27592 9.87302H5.93784V6.15873H8.78838L9.10866 4L13.1442 4.4127L12.856 6.19048H17.9165ZM22.5926 6.57143L23.9378 11.5238L20.6389 12.5714L19.1976 7.52381L22.5926 6.57143ZM15.6745 10.9841L19.1976 10.7619L19.3898 15.1429C20.3827 15.2381 21.3115 15.3968 22.4005 15.6508L21.824 18.5079C20.8951 18.2857 20.2225 18.1587 19.4859 18.0952C19.3257 19.9683 18.3329 22 15.5784 22C13.1122 22 11.735 20.127 11.735 18.2857C11.735 16.4762 13.0482 14.6984 15.9628 14.6984L15.6745 10.9841ZM15.6104 19.0476C15.9948 19.0476 16.3471 18.6984 16.3471 18.3175C16.3471 17.9365 15.9948 17.5873 15.6104 17.5873C15.2261 17.5873 14.8738 17.9365 14.8738 18.3175C14.8738 18.6984 15.2261 19.0476 15.6104 19.0476Z" fill="#553B1F"/>
<path d="M162.447 14.0985C162.699 13.9473 163.027 14.0481 163.153 14.3253L164.539 17.7027C164.64 17.9547 164.564 18.2068 164.337 18.3328C161.237 20.1223 158.137 21.5841 155.919 22.3403C155.591 22.4411 155.264 22.2143 155.264 21.8866C155.239 18.8621 155.239 8.30153 155.264 5.40304C155.264 5.12579 155.491 4.89896 155.743 4.89896H159.397C159.675 4.89896 159.901 5.12579 159.901 5.40304C159.901 8.32673 159.876 15.5099 159.876 15.5099C159.876 15.5099 161.187 14.8042 162.447 14.0985ZM146.795 6.9657L150.954 6.86489C151.231 6.83968 151.458 7.06652 151.458 7.34377C151.483 8.45275 151.433 10.4691 151.13 13.1407C150.752 16.3669 150.198 18.6101 149.82 19.8451C149.744 20.0971 149.492 20.2483 149.24 20.1727L145.182 19.2402C144.905 19.1645 144.728 18.8873 144.804 18.6101C145.132 17.4507 145.611 15.4847 145.938 12.8383C146.215 10.3935 146.291 8.52836 146.291 7.46979C146.291 7.19254 146.518 6.9657 146.795 6.9657Z" fill="#D9BF2E"/>
<path d="M137.428 22.5671C137.252 22.7687 136.974 22.8192 136.748 22.6931C135.815 22.0882 134.227 21.1305 132.337 19.9207C130.371 18.6605 128.707 17.7279 127.649 17.1482C127.397 16.997 127.321 16.6693 127.472 16.4425L129.186 13.7204C129.312 13.5188 129.59 13.4432 129.816 13.544C130.85 14.0481 132.69 14.9806 132.69 14.9806C133.824 13.7204 135.891 10.5447 136.546 8.98204C136.546 8.98204 129.086 9.00724 125.557 9.00724C125.28 9.00724 125.053 8.7804 125.053 8.50316C125.053 7.67142 125.053 6.03314 125.053 5.22661C125.053 4.94936 125.28 4.72252 125.557 4.72252C127.926 4.69732 133.471 4.64691 136.092 4.64691C136.496 4.64691 140.15 4.69732 143.023 4.72252C143.351 4.74773 143.603 5.07538 143.477 5.40304C141.41 11.4773 136.496 17.5515 136.496 17.5515C136.496 17.5515 137 17.8791 137.1 17.9547C138.058 18.5344 138.714 18.9377 139.142 19.2402C139.394 19.3914 139.444 19.719 139.293 19.9459L137.428 22.5671Z" fill="#4695D0"/>
<path d="M108 11L107 9H109H119.5L118.5 11L117.5 9.5L116 11L115 9.5L113.5 11L112 9.5L110.5 11L109 9L108 11Z" fill="#BBE5EF"/>
<path d="M107 9L108 11L109 9L110.5 11L112 9.5L113.5 11L115 9.5L116 11L117.5 9.5L118.5 11L119.5 9H107Z" stroke="#BBE5EF" stroke-width="1.5" stroke-linejoin="round"/>
<path d="M112.56 16.2156C113.468 16.2156 119.24 16.2409 121.331 16.2661C121.609 16.2661 121.836 16.4929 121.81 16.7701L121.785 20.6768C121.785 20.954 121.584 21.1809 121.306 21.1809C119.996 21.2565 117.904 21.3069 112.938 21.3069C108.78 21.3069 106.385 21.2565 105.1 21.2061C104.848 21.1809 104.621 20.9792 104.621 20.702V16.8205C104.621 16.5685 104.848 16.3417 105.125 16.3165C107.721 16.2661 110.267 16.2409 112.56 16.2156ZM112.762 10.1666C111.048 10.1666 107.898 10.1666 106.637 10.1666C106.36 10.1666 106.133 9.965 106.133 9.68775L106.108 5.73069C106.083 5.47865 106.31 5.25181 106.562 5.22661C107.898 5.1762 110.065 5.12579 112.863 5.07538C114.602 5.05018 118.357 5.07538 119.794 5.10059C120.071 5.10059 120.298 5.32742 120.298 5.60467L120.273 9.63734C120.273 9.91459 120.046 10.1414 119.769 10.1414C118.332 10.1414 115.585 10.1666 112.762 10.1666Z" fill="#4DB971"/>
<mask id="mask0_27_99" style="mask-type:alpha" maskUnits="userSpaceOnUse" x="144" y="4" width="21" height="19">
<path d="M162.447 14.0985C162.699 13.9473 163.027 14.0481 163.153 14.3253L164.539 17.7027C164.64 17.9547 164.564 18.2068 164.337 18.3328C161.237 20.1223 158.137 21.5841 155.919 22.3403C155.591 22.4411 155.264 22.2143 155.264 21.8866C155.239 18.8621 155.239 8.30153 155.264 5.40304C155.264 5.12579 155.491 4.89896 155.743 4.89896H159.397C159.675 4.89896 159.901 5.12579 159.901 5.40304C159.901 8.32673 159.876 15.5099 159.876 15.5099C159.876 15.5099 161.187 14.8042 162.447 14.0985ZM146.795 6.9657L150.954 6.86489C151.231 6.83968 151.458 7.06652 151.458 7.34377C151.483 8.45275 151.433 10.4691 151.13 13.1407C150.752 16.3669 150.198 18.6101 149.82 19.8451C149.744 20.0971 149.492 20.2483 149.24 20.1727L145.182 19.2402C144.905 19.1645 144.728 18.8873 144.804 18.6101C145.132 17.4507 145.611 15.4847 145.938 12.8383C146.215 10.3935 146.291 8.52836 146.291 7.46979C146.291 7.19254 146.518 6.9657 146.795 6.9657Z" fill="#D9BF2E"/>
</mask>
<g mask="url(#mask0_27_99)">
<path d="M161 17.5C160.5 16.5 160.333 16 160 15.5L163 13.5L165.5 18.5L161.5 20.5C161.5 20 161.5 18.5 161 17.5Z" fill="#854E25"/>
<path d="M148.5 15.5C147.3 15.5 145.667 15.1667 145 15L144 19.5L150 20.5L151.5 15.5H148.5Z" fill="#854E25"/>
</g>
<path d="M89.5 2.50001C88.8094 2.85229 88.5 4.05482 88.5 5.22909L91 4.50001C90.5 3.49998 90.1906 2.14773 89.5 2.50001Z" fill="#EEDB2F"/>
<path d="M98 2.50002C96.9641 2.50002 96.5 4.50004 96 5.22909L99 5.22909C99.1439 3.90804 99.0359 2.50002 98 2.50002Z" fill="#EEDB2F"/>
<path d="M88.2976 12.0822C89.3814 12.1074 91.801 12.1326 92.784 12.1578C93.036 12.1578 93.2377 12.3594 93.2629 12.6114C93.3385 13.3928 93.3889 14.8042 93.2377 17.0474C93.0612 19.5678 92.7084 21.6598 92.4563 22.6931C92.4059 22.9452 92.1791 23.0964 91.927 23.0712C90.9693 22.9956 88.5497 22.7939 87.4407 22.7183C87.1634 22.6931 86.9366 22.4159 86.987 22.1134C87.2391 20.8028 87.5667 18.5596 87.7179 16.3921C87.844 14.6278 87.8187 13.3928 87.7935 12.5862C87.7683 12.309 88.0204 12.0569 88.2976 12.0822ZM92.4059 4.26884C96.8671 4.24364 100.723 4.34446 102.614 4.49568C102.891 4.52089 103.118 4.77293 103.067 5.07538C102.916 6.18437 102.588 7.94866 101.933 9.965C101.076 12.6114 100.194 14.2245 99.6395 15.0562C99.5135 15.2579 99.2867 15.3335 99.0598 15.2579L95.6573 14.0985C95.38 13.9977 95.254 13.6952 95.3548 13.418C96.1613 11.5025 97.0939 8.57877 97.0939 8.57877L92.0783 8.60397C89.1294 8.60397 85.6764 8.65438 83.8617 8.70479C83.5844 8.70479 83.3576 8.47795 83.3576 8.2007C83.3576 7.36896 83.3576 5.75589 83.3324 4.94936C83.3324 4.67211 83.5592 4.47048 83.8113 4.44527C85.2731 4.39486 88.0204 4.31925 92.4059 4.26884Z" fill="#E86F3B"/>
</svg>
