<svg width="168" height="26" viewBox="0 0 168 26" fill="none" xmlns="http://www.w3.org/2000/svg">
<path d="M107 15.5L106 17H120.688L119.5 15.5L118.5 16.5L117 15.5L116 16.5L114.5 15.5L113 16.5L112 15.5L111 16.5L109.5 15.5L108 16.5L107 15.5Z" fill="#BBE5EF" stroke="#BBE5EF" stroke-linejoin="round"/>
<path d="M89.5 2.50001C88.8094 2.85229 88.5 4.05482 88.5 5.22909L91 4.50001C90.5 3.49998 90.1906 2.14773 89.5 2.50001Z" fill="#EEDB2F"/>
<path d="M98 2.50002C96.9641 2.50002 96.5 4.50004 96 5.22909L99 5.22909C99.1439 3.90804 99.0359 2.50002 98 2.50002Z" fill="#EEDB2F"/>
<path d="M72.4438 23.088C67.8734 23.088 64.8153 19.5258 65.1514 15.2243L65.9243 5.17618L70.3938 5.57944L69.5537 15.9972C69.3857 18.0471 70.6627 19.1225 72.1077 19.1225C73.5864 19.1225 75.2331 18.0807 75.9052 15.9972L79.9378 17.6439C78.392 20.7692 75.7371 23.088 72.4438 23.088Z" fill="#553B1F"/>
<path d="M61.4132 10.1834L54.8265 10.217C54.9609 11.4941 55.0954 12.7711 55.1626 13.9809C56.574 14.0481 58.2207 14.2161 59.2289 14.4177L58.6912 18.0808C57.851 17.8455 56.238 17.7111 55.2298 17.6775C54.9946 20.7692 53.3815 23.088 50.2898 23.088C46.8284 23.088 45.0473 20.87 45.0473 18.5848C45.0473 16.2997 46.8956 13.9809 50.6258 13.9809C50.525 11.2588 50.1217 7.79744 49.5504 4.53769L53.9528 4.16803C54.0872 4.94096 54.2216 5.7475 54.3224 6.55403L61.346 6.52043L61.4132 10.1834ZM50.1553 19.3914C50.6258 19.3914 51.0291 18.9881 51.0291 18.5176C51.0291 18.0472 50.6258 17.6439 50.1553 17.6439C49.6849 17.6439 49.2816 18.0472 49.2816 18.5176C49.2816 18.9881 49.6849 19.3914 50.1553 19.3914Z" fill="#553B1F"/>
<path d="M32.9571 5.00817L32.6546 7.22614C38.1995 7.69662 39.2413 10.0154 39.2413 12.6703C39.2413 13.2416 39.2077 13.8128 39.1405 14.4178C38.9053 16.7365 38.502 19.593 37.7291 22.8528L32.6546 22.6511L32.8226 18.7193L34.8054 18.8201L35.3431 15.2243C35.3767 14.8546 35.4103 14.485 35.4103 14.1489C35.4103 12.5022 34.8054 11.4941 32.0497 11.2588L30.403 22.8528L26.5384 22.3487L27.9162 11.2924C27.0425 11.3596 26.0679 11.4268 24.9925 11.5613L24.5893 7.5622C26.0007 7.39417 27.2441 7.29336 28.3867 7.22614L28.7564 4.33606L32.9571 5.00817ZM39.5102 6.08355L43.442 5.7811L43.8453 13.376L40.0479 13.6784L39.5102 6.08355Z" fill="#553B1F"/>
<path d="M15.5685 6.31879L15.5013 10.1498L9.62031 10.1834L7.97363 20.4668L4.07538 19.9963L5.45321 10.217H3V6.28518H5.9909L6.32696 4L10.5613 4.43687L10.2588 6.31879H15.5685ZM20.4749 6.72206L21.8864 11.9645L18.425 13.0735L16.9127 7.73023L20.4749 6.72206ZM13.2161 11.3932L16.9127 11.158L17.1144 15.7956C18.1561 15.8964 19.1307 16.0644 20.2733 16.3333L19.6684 19.3578C18.6938 19.1225 17.9881 18.9881 17.2152 18.9209C17.0472 20.9036 16.0054 23.0544 13.1153 23.0544C10.5277 23.0544 9.08262 21.0717 9.08262 19.1225C9.08262 17.207 10.4605 15.3251 13.5186 15.3251L13.2161 11.3932ZM13.1489 19.9291C13.5522 19.9291 13.9218 19.5594 13.9218 19.1561C13.9218 18.7529 13.5522 18.3832 13.1489 18.3832C12.7456 18.3832 12.376 18.7529 12.376 19.1561C12.376 19.5594 12.7456 19.9291 13.1489 19.9291Z" fill="#553B1F"/>
<path d="M162.447 14.0985C162.699 13.9473 163.027 14.0481 163.153 14.3253L164.539 17.7027C164.64 17.9547 164.564 18.2068 164.337 18.3328C161.237 20.1223 158.137 21.5841 155.919 22.3403C155.591 22.4411 155.264 22.2143 155.264 21.8866C155.239 18.8621 155.239 8.30153 155.264 5.40304C155.264 5.12579 155.491 4.89896 155.743 4.89896H159.397C159.675 4.89896 159.901 5.12579 159.901 5.40304C159.901 8.32673 159.876 15.5099 159.876 15.5099C159.876 15.5099 161.187 14.8042 162.447 14.0985ZM146.795 6.9657L150.954 6.86489C151.231 6.83968 151.458 7.06652 151.458 7.34377C151.483 8.45275 151.433 10.4691 151.13 13.1407C150.752 16.3669 150.198 18.6101 149.82 19.8451C149.744 20.0971 149.492 20.2483 149.24 20.1727L145.182 19.2402C144.905 19.1645 144.728 18.8873 144.804 18.6101C145.132 17.4507 145.611 15.4847 145.938 12.8383C146.215 10.3935 146.291 8.52836 146.291 7.46979C146.291 7.19254 146.518 6.9657 146.795 6.9657Z" fill="#D9BF2E"/>
<path d="M137.428 22.5671C137.252 22.7687 136.974 22.8192 136.748 22.6931C135.815 22.0882 134.227 21.1305 132.337 19.9207C130.371 18.6605 128.707 17.7279 127.649 17.1482C127.397 16.997 127.321 16.6693 127.472 16.4425L129.186 13.7204C129.312 13.5188 129.59 13.4432 129.816 13.544C130.85 14.0481 132.69 14.9806 132.69 14.9806C133.824 13.7204 135.891 10.5447 136.546 8.98204C136.546 8.98204 129.086 9.00724 125.557 9.00724C125.28 9.00724 125.053 8.7804 125.053 8.50316C125.053 7.67142 125.053 6.03314 125.053 5.22661C125.053 4.94936 125.28 4.72252 125.557 4.72252C127.926 4.69732 133.471 4.64691 136.092 4.64691C136.496 4.64691 140.15 4.69732 143.023 4.72252C143.351 4.74773 143.603 5.07538 143.477 5.40304C141.41 11.4773 136.496 17.5515 136.496 17.5515C136.496 17.5515 137 17.8791 137.1 17.9547C138.058 18.5344 138.714 18.9377 139.142 19.2402C139.394 19.3914 139.444 19.719 139.293 19.9459L137.428 22.5671Z" fill="#4695D0"/>
<path d="M88.2976 12.0822C89.3814 12.1074 91.801 12.1326 92.784 12.1578C93.036 12.1578 93.2377 12.3594 93.2629 12.6114C93.3385 13.3928 93.3889 14.8042 93.2377 17.0474C93.0612 19.5678 92.7084 21.6598 92.4563 22.6931C92.4059 22.9452 92.1791 23.0964 91.927 23.0712C90.9693 22.9956 88.5497 22.7939 87.4407 22.7183C87.1634 22.6931 86.9366 22.4159 86.987 22.1134C87.2391 20.8028 87.5667 18.5596 87.7179 16.3921C87.844 14.6278 87.8187 13.3928 87.7935 12.5862C87.7683 12.309 88.0204 12.0569 88.2976 12.0822ZM92.4059 4.26884C96.8671 4.24364 100.723 4.34446 102.614 4.49568C102.891 4.52089 103.118 4.77293 103.067 5.07538C102.916 6.18437 102.588 7.94866 101.933 9.965C101.076 12.6114 100.194 14.2245 99.6395 15.0562C99.5135 15.2579 99.2867 15.3335 99.0598 15.2579L95.6573 14.0985C95.38 13.9977 95.254 13.6952 95.3548 13.418C96.1613 11.5025 97.0939 8.57877 97.0939 8.57877L92.0783 8.60397C89.1294 8.60397 85.6764 8.65438 83.8617 8.70479C83.5844 8.70479 83.3576 8.47795 83.3576 8.2007C83.3576 7.36896 83.3576 5.75589 83.3324 4.94936C83.3324 4.67211 83.5592 4.47048 83.8113 4.44527C85.2731 4.39486 88.0204 4.31925 92.4059 4.26884Z" fill="#E86F3B"/>
<path d="M108 11L107 9H109H119.5L118.5 11L117.5 9.5L116 11L115 9.5L113.5 11L112 9.5L110.5 11L109 9L108 11Z" fill="#BBE5EF" stroke="#BBE5EF" stroke-linejoin="round"/>
<path d="M112.56 16.2156C113.468 16.2156 119.24 16.2409 121.331 16.2661C121.609 16.2661 121.836 16.4929 121.81 16.7701L121.785 20.6768C121.785 20.954 121.584 21.1809 121.306 21.1809C119.996 21.2565 117.904 21.3069 112.938 21.3069C108.78 21.3069 106.385 21.2565 105.1 21.2061C104.848 21.1809 104.621 20.9792 104.621 20.702V16.8205C104.621 16.5685 104.848 16.3417 105.125 16.3165C107.721 16.2661 110.267 16.2409 112.56 16.2156ZM112.762 10.1666C111.048 10.1666 107.898 10.1666 106.637 10.1666C106.36 10.1666 106.133 9.965 106.133 9.68775L106.108 5.73069C106.083 5.47865 106.31 5.25181 106.562 5.22661C107.898 5.1762 110.065 5.12579 112.863 5.07538C114.602 5.05018 118.357 5.07538 119.794 5.10059C120.071 5.10059 120.298 5.32742 120.298 5.60467L120.273 9.63734C120.273 9.91459 120.046 10.1414 119.769 10.1414C118.332 10.1414 115.585 10.1666 112.762 10.1666Z" fill="#4DB971"/>
<mask id="mask0_27_99" style="mask-type:alpha" maskUnits="userSpaceOnUse" x="144" y="4" width="21" height="19">
<path d="M162.447 14.0985C162.699 13.9473 163.027 14.0481 163.153 14.3253L164.539 17.7027C164.64 17.9547 164.564 18.2068 164.337 18.3328C161.237 20.1223 158.137 21.5841 155.919 22.3403C155.591 22.4411 155.264 22.2143 155.264 21.8866C155.239 18.8621 155.239 8.30153 155.264 5.40304C155.264 5.12579 155.491 4.89896 155.743 4.89896H159.397C159.675 4.89896 159.901 5.12579 159.901 5.40304C159.901 8.32673 159.876 15.5099 159.876 15.5099C159.876 15.5099 161.187 14.8042 162.447 14.0985ZM146.795 6.9657L150.954 6.86489C151.231 6.83968 151.458 7.06652 151.458 7.34377C151.483 8.45275 151.433 10.4691 151.13 13.1407C150.752 16.3669 150.198 18.6101 149.82 19.8451C149.744 20.0971 149.492 20.2483 149.24 20.1727L145.182 19.2402C144.905 19.1645 144.728 18.8873 144.804 18.6101C145.132 17.4507 145.611 15.4847 145.938 12.8383C146.215 10.3935 146.291 8.52836 146.291 7.46979C146.291 7.19254 146.518 6.9657 146.795 6.9657Z" fill="#D9BF2E"/>
</mask>
<g mask="url(#mask0_27_99)">
<path d="M161 17.5C160.5 16.5 160.333 16 160 15.5L163 13.5L165.5 18.5L161.5 20.5C161.5 20 161.5 18.5 161 17.5Z" fill="#854E25"/>
<path d="M148.5 15.5C147.3 15.5 145.667 15.1667 145 15L144 19.5L150 20.5L151.5 15.5H148.5Z" fill="#854E25"/>
</g>
</svg>
