<svg width="89" height="47" viewBox="0 0 89 47" fill="none" xmlns="http://www.w3.org/2000/svg">
<path d="M9.6676 22C8.8676 22.4 8.1676 25.1666 8.1676 26.5L12.6676 25.5C12.3343 24.1666 10.4676 21.6 9.6676 22Z" fill="#E86F3B"/>
<path d="M19.1676 22C17.9676 22 16.5009 24.3333 16.1676 25.5L20.6676 26.5C20.8343 25 20.3676 22 19.1676 22Z" fill="#E86F3B"/>
<path d="M27.6676 36.5L26.6676 38H41.3551L40.1676 36.5L39.1676 37.5L37.6676 36.5L36.6676 37.5L35.1676 36.5L33.6676 37.5L32.6676 36.5L31.6676 37.5L30.1676 36.5L28.6676 37.5L27.6676 36.5Z" fill="#BBE5EF" stroke="#BBE5EF" stroke-width="1.5" stroke-linejoin="round"/>
<path d="M83.1146 35.0985C83.3667 34.9472 83.6943 35.0481 83.8203 35.3253L85.2066 38.7027C85.3074 38.9547 85.2318 39.2068 85.0049 39.3328C81.9048 41.1223 78.8047 42.5841 76.5867 43.3402C76.2591 43.4411 75.9314 43.2142 75.9314 42.8866C75.9062 39.8621 75.9062 29.3015 75.9314 26.403C75.9314 26.1258 76.1583 25.8989 76.4103 25.8989H80.0649C80.3421 25.8989 80.569 26.1258 80.569 26.403C80.569 29.3267 80.5438 36.5099 80.5438 36.5099C80.5438 36.5099 81.8544 35.8042 83.1146 35.0985ZM67.4628 27.9657L71.6215 27.8649C71.8987 27.8396 72.1256 28.0665 72.1256 28.3437C72.1508 29.4527 72.1004 31.4691 71.7979 34.1407C71.4199 37.3668 70.8654 39.61 70.4873 40.845C70.4117 41.0971 70.1596 41.2483 69.9076 41.1727L65.8497 40.2401C65.5725 40.1645 65.3961 39.8873 65.4717 39.61C65.7993 38.4506 66.2782 36.4847 66.6059 33.8383C66.8831 31.3934 66.9587 29.5283 66.9587 28.4698C66.9587 28.1925 67.1855 27.9657 67.4628 27.9657Z" fill="#D9BF2E"/>
<path d="M58.0957 43.5671C57.9193 43.7687 57.6421 43.8192 57.4152 43.6931C56.4827 43.0882 54.8948 42.1305 53.0045 40.9207C51.0385 39.6605 49.3751 38.7279 48.3165 38.1482C48.0645 37.997 47.9888 37.6693 48.1401 37.4425L49.854 34.7204C49.98 34.5188 50.2572 34.4432 50.4841 34.544C51.5174 35.0481 53.3573 35.9806 53.3573 35.9806C54.4915 34.7204 56.5583 31.5447 57.2136 29.982C57.2136 29.982 49.7531 30.0072 46.2245 30.0072C45.9473 30.0072 45.7205 29.7804 45.7205 29.5032C45.7205 28.6714 45.7205 27.0331 45.7205 26.2266C45.7205 25.9494 45.9473 25.7225 46.2245 25.7225C48.5937 25.6973 54.1387 25.6469 56.7599 25.6469C57.1632 25.6469 60.8178 25.6973 63.6911 25.7225C64.0187 25.7477 64.2708 26.0754 64.1447 26.403C62.078 32.4773 57.1632 38.5515 57.1632 38.5515C57.1632 38.5515 57.6673 38.8791 57.7681 38.9547C58.7258 39.5344 59.3811 39.9377 59.8096 40.2402C60.0617 40.3914 60.1121 40.719 59.9608 40.9459L58.0957 43.5671Z" fill="#4695D0"/>
<path d="M28.6676 32L27.6676 30H29.6676H40.1676L39.1676 32L38.1676 30.5L36.6676 32L35.6676 30.5L34.1676 32L32.6676 30.5L31.1676 32L29.6676 30L28.6676 32Z" fill="#BBE5EF"/>
<path d="M27.6676 30L28.6676 32L29.6676 30L31.1676 32L32.6676 30.5L34.1676 32L35.6676 30.5L36.6676 32L38.1676 30.5L39.1676 32L40.1676 30H27.6676Z" stroke="#BBE5EF" stroke-width="1.5" stroke-linejoin="round"/>
<path d="M33.228 37.2156C34.1354 37.2156 39.9071 37.2409 41.9991 37.2661C42.2763 37.2661 42.5032 37.4929 42.478 37.7701L42.4528 41.6768C42.4528 41.954 42.2511 42.1809 41.9739 42.1809C40.6633 42.2565 38.5713 42.3069 33.6061 42.3069C29.4474 42.3069 27.053 42.2565 25.7676 42.2061C25.5155 42.1809 25.2887 41.9792 25.2887 41.702V37.8205C25.2887 37.5685 25.5155 37.3417 25.7928 37.3165C28.3888 37.2661 30.9344 37.2409 33.228 37.2156ZM33.4297 31.1666C31.7158 31.1666 28.5652 31.1666 27.305 31.1666C27.0278 31.1666 26.801 30.965 26.801 30.6878L26.7757 26.7307C26.7505 26.4786 26.9774 26.2518 27.2294 26.2266C28.5652 26.1762 30.7328 26.1258 33.5305 26.0754C35.2696 26.0502 39.025 26.0754 40.4616 26.1006C40.7389 26.1006 40.9657 26.3274 40.9657 26.6047L40.9405 30.6373C40.9405 30.9146 40.7137 31.1414 40.4364 31.1414C38.9998 31.1414 36.2525 31.1666 33.4297 31.1666Z" fill="#4DB971"/>
<mask id="mask0_28_83" style="mask-type:alpha" maskUnits="userSpaceOnUse" x="65" y="25" width="21" height="19">
<path d="M83.1146 35.0985C83.3667 34.9472 83.6943 35.0481 83.8203 35.3253L85.2066 38.7027C85.3074 38.9547 85.2318 39.2068 85.0049 39.3328C81.9048 41.1223 78.8047 42.5841 76.5867 43.3402C76.2591 43.4411 75.9314 43.2142 75.9314 42.8866C75.9062 39.8621 75.9062 29.3015 75.9314 26.403C75.9314 26.1258 76.1583 25.8989 76.4103 25.8989H80.0649C80.3421 25.8989 80.569 26.1258 80.569 26.403C80.569 29.3267 80.5438 36.5099 80.5438 36.5099C80.5438 36.5099 81.8544 35.8042 83.1146 35.0985ZM67.4628 27.9657L71.6215 27.8649C71.8987 27.8396 72.1256 28.0665 72.1256 28.3437C72.1508 29.4527 72.1004 31.4691 71.7979 34.1407C71.4199 37.3668 70.8654 39.61 70.4873 40.845C70.4117 41.0971 70.1596 41.2483 69.9076 41.1727L65.8497 40.2401C65.5725 40.1645 65.3961 39.8873 65.4717 39.61C65.7993 38.4506 66.2782 36.4847 66.6059 33.8383C66.8831 31.3934 66.9587 29.5283 66.9587 28.4698C66.9587 28.1925 67.1855 27.9657 67.4628 27.9657Z" fill="#D9BF2E"/>
</mask>
<g mask="url(#mask0_28_83)">
<path d="M81.6676 38.5C81.1676 37.5 81.0009 37 80.6676 36.5L83.6676 34.5L86.1676 39.5L82.1676 41.5C82.1676 41 82.1676 39.5 81.6676 38.5Z" fill="#854E25"/>
<path d="M69.1676 36.5C67.9676 36.5 66.3343 36.1667 65.6676 36L64.6676 40.5L70.6676 41.5L72.1676 36.5H69.1676Z" fill="#854E25"/>
</g>
<path d="M10.1676 23.5C9.47703 23.8523 9.1676 25.0548 9.1676 26.2291L11.6676 25.5C11.1676 24.4999 10.8582 23.1477 10.1676 23.5Z" fill="#EEDB2F"/>
<path d="M18.6676 23.5C17.6317 23.5 17.1676 25.5 16.6676 26.2291L19.6676 26.2291C19.8115 24.908 19.7035 23.5 18.6676 23.5Z" fill="#EEDB2F"/>
<path d="M8.96523 33.0822C10.049 33.1074 12.4686 33.1326 13.4516 33.1578C13.7036 33.1578 13.9053 33.3594 13.9305 33.6115C14.0061 34.3928 14.0565 35.8042 13.9053 38.0474C13.7288 40.5678 13.376 42.6598 13.1239 43.6932C13.0735 43.9452 12.8467 44.0964 12.5946 44.0712C11.6369 43.9956 9.21727 43.794 8.10829 43.7184C7.83104 43.6932 7.6042 43.4159 7.65461 43.1135C7.90665 41.8028 8.23431 39.5597 8.38553 37.3921C8.51155 35.6278 8.48635 34.3928 8.46115 33.5863C8.43594 33.309 8.68798 33.057 8.96523 33.0822ZM13.0735 25.2689C17.5347 25.2437 21.3909 25.3445 23.2812 25.4957C23.5585 25.5209 23.7853 25.773 23.7349 26.0754C23.5837 27.1844 23.256 28.9487 22.6007 30.965C21.7438 33.6115 20.8616 35.2245 20.3071 36.0563C20.1811 36.2579 19.9543 36.3335 19.7274 36.2579L16.3249 35.0985C16.0476 34.9977 15.9216 34.6953 16.0224 34.418C16.8289 32.5025 17.7615 29.5788 17.7615 29.5788L12.7459 29.604C9.79697 29.604 6.34399 29.6544 4.52929 29.7048C4.25204 29.7048 4.0252 29.478 4.0252 29.2007C4.0252 28.369 4.0252 26.7559 4 25.9494C4 25.6721 4.22684 25.4705 4.47888 25.4453C5.94072 25.3949 8.68798 25.3193 13.0735 25.2689Z" fill="#E86F3B"/>
<path d="M71.4814 19C67.6415 19 65.0721 15.9948 65.3545 12.3659L66.0039 3.88892L69.7591 4.22913L69.0532 13.0179C68.9121 14.7474 69.985 15.6546 71.1991 15.6546C72.4414 15.6546 73.8249 14.7757 74.3896 13.0179L77.7778 14.4071C76.479 17.0438 74.2484 19 71.4814 19Z" fill="#553B1F"/>
<path d="M61.7778 8.08703L56.0538 8.11545C56.1706 9.19538 56.2875 10.2753 56.3459 11.2984C57.5724 11.3552 59.0034 11.4973 59.8795 11.6678L59.4123 14.7655C58.6822 14.5666 57.2804 14.4529 56.4043 14.4245C56.1998 17.0391 54.7981 19 52.1113 19C49.1033 19 47.5555 17.1243 47.5555 15.1918C47.5555 13.2593 49.1617 11.2984 52.4034 11.2984C52.3158 8.99644 51.9653 6.06927 51.4688 3.31261L55.2945 3C55.4113 3.65364 55.5282 4.3357 55.6158 5.01776L61.7193 4.98934L61.7778 8.08703ZM51.9945 15.8739C52.4034 15.8739 52.7538 15.5328 52.7538 15.135C52.7538 14.7371 52.4034 14.3961 51.9945 14.3961C51.5857 14.3961 51.2352 14.7371 51.2352 15.135C51.2352 15.5328 51.5857 15.8739 51.9945 15.8739Z" fill="#553B1F"/>
<path d="M37.6195 3.58076L37.3682 5.49728C41.9755 5.90381 42.8411 7.90744 42.8411 10.2014C42.8411 10.6951 42.8132 11.1887 42.7574 11.7114C42.5619 13.7151 42.2268 16.1833 41.5846 19L37.3682 18.8258L37.5078 15.4283L39.1553 15.5154L39.6021 12.4083C39.63 12.0889 39.6579 11.7695 39.6579 11.4791C39.6579 10.0563 39.1553 9.18511 36.8656 8.98185L35.4973 19L32.2862 18.5644L33.431 9.01089C32.705 9.06896 31.8952 9.12704 31.0017 9.24319L30.6666 5.78766C31.8394 5.64247 32.8726 5.55535 33.8219 5.49728L34.1291 3L37.6195 3.58076ZM43.0645 4.50998L46.3315 4.24864L46.6666 10.8112L43.5113 11.0726L43.0645 4.50998Z" fill="#553B1F"/>
<path d="M22.6477 4.94709L22.5907 8.16402L17.6085 8.19224L16.2135 16.8271L12.911 16.4321L14.0783 8.22046H12V4.91887H14.5338L14.8185 3L18.4057 3.36684L18.1495 4.94709H22.6477ZM26.8043 5.28571L28 9.68782L25.0676 10.619L23.7865 6.13227L26.8043 5.28571ZM20.6548 9.20811L23.7865 9.01058L23.9573 12.9048C24.8399 12.9894 25.6655 13.1305 26.6334 13.3563L26.121 15.8959C25.2954 15.6984 24.6975 15.5855 24.0427 15.5291C23.9004 17.194 23.0178 19 20.5694 19C18.3772 19 17.153 17.3351 17.153 15.6984C17.153 14.0899 18.3203 12.5097 20.911 12.5097L20.6548 9.20811ZM20.5979 16.3757C20.9395 16.3757 21.2527 16.0652 21.2527 15.7266C21.2527 15.388 20.9395 15.0776 20.5979 15.0776C20.2562 15.0776 19.9431 15.388 19.9431 15.7266C19.9431 16.0652 20.2562 16.3757 20.5979 16.3757Z" fill="#553B1F"/>
</svg>
